<?xml version="1.0" standalone="no"?>
<!DOCTYPE svg PUBLIC "-//W3C//DTD SVG 20010904//EN"
 "http://www.w3.org/TR/2001/REC-SVG-20010904/DTD/svg10.dtd">
<svg version="1.0" xmlns="http://www.w3.org/2000/svg"
 width="1920.000000pt" height="656.000000pt" viewBox="0 0 1920.000000 656.000000"
 preserveAspectRatio="xMidYMid meet">

<g transform="translate(0.000000,656.000000) scale(0.100000,-0.100000)"
fill="#000000" stroke="none">
<path d="M180 6551 c-74 -23 -127 -69 -159 -141 -20 -44 -21 -63 -21 -604 0
-403 3 -570 12 -598 6 -22 31 -62 55 -88 77 -86 -32 -80 1415 -80 900 0 1292
-3 1323 -11 55 -14 117 -66 144 -122 20 -42 21 -57 21 -538 l0 -495 -26 -52
c-29 -58 -69 -96 -134 -126 -44 -20 -63 -21 -605 -26 -623 -6 -597 -3 -670
-75 -21 -21 -47 -59 -59 -84 -21 -45 -21 -56 -21 -596 l0 -550 24 -53 c14 -31
43 -69 69 -92 79 -70 80 -70 672 -70 585 0 581 0 659 -67 23 -19 52 -54 64
-77 22 -40 22 -49 27 -541 5 -457 7 -504 25 -550 23 -61 97 -137 162 -168 l48
-22 645 0 645 0 0 2080 0 2080 -27 50 c-31 60 -77 104 -138 136 l-45 24 -555
5 -555 5 -38 24 c-21 13 -50 42 -65 64 l-27 41 -5 570 -5 571 -27 52 c-15 28
-43 63 -61 77 -77 59 -1 56 -1431 55 -721 0 -1322 -4 -1336 -8z"/>
<path d="M5412 2288 l3 -1563 213 -3 212 -2 0 1377 c0 784 4 1373 9 1368 5 -6
23 -53 41 -105 18 -52 54 -156 80 -230 27 -74 92 -259 145 -410 53 -151 136
-387 185 -525 49 -137 132 -374 185 -525 53 -151 128 -365 167 -475 39 -110
92 -261 118 -335 l47 -135 201 -3 c183 -2 200 -1 207 15 6 17 67 184 240 663
108 298 483 1339 646 1794 49 137 94 256 99 265 7 11 9 -7 5 -59 -2 -41 -7
-439 -10 -885 -3 -445 -8 -1032 -12 -1302 l-6 -493 226 0 227 0 0 1565 0 1565
-360 0 -360 0 -11 -27 c-12 -30 -70 -193 -202 -568 -109 -307 -185 -522 -252
-710 -30 -82 -83 -233 -119 -335 -35 -102 -99 -282 -141 -400 -42 -118 -95
-268 -117 -332 -23 -65 -44 -118 -47 -118 -4 0 -46 111 -93 248 -48 136 -110
312 -138 392 -67 188 -228 644 -295 835 -67 190 -163 464 -271 769 -46 131
-84 240 -84 242 0 2 -167 4 -370 4 l-370 0 2 -1562z"/>
<path d="M10065 3180 c-250 -20 -459 -88 -608 -199 -78 -57 -164 -156 -198
-228 -37 -77 -69 -201 -69 -265 0 -46 1 -48 28 -48 15 -1 106 -9 202 -19 96
-10 178 -17 181 -15 3 2 9 32 11 67 14 170 136 287 358 343 114 29 379 27 475
-3 94 -30 155 -70 193 -129 87 -130 81 -300 -13 -390 -55 -53 -115 -73 -360
-119 -104 -19 -251 -47 -325 -61 -251 -47 -431 -112 -564 -203 -75 -52 -172
-165 -209 -243 -42 -88 -55 -139 -63 -250 -28 -360 177 -630 541 -714 119 -28
396 -26 520 4 243 58 433 175 539 332 l51 74 5 -89 c7 -101 28 -159 79 -218
39 -44 131 -91 209 -108 64 -13 243 -7 305 11 l37 11 0 158 0 159 -63 -5 c-51
-4 -71 -1 -105 16 -81 41 -76 -7 -82 826 -5 665 -8 746 -23 800 -57 195 -168
321 -359 409 -166 77 -443 115 -693 96z m599 -1821 c-127 -242 -471 -372 -814
-307 -75 14 -184 72 -225 121 -51 60 -68 121 -63 231 3 77 8 99 32 143 42 77
91 121 181 164 89 42 145 56 480 124 222 45 393 87 425 105 13 8 15 -22 18
-251 l2 -260 -36 -70z"/>
<path d="M12805 3179 c-162 -16 -341 -80 -456 -165 -65 -48 -173 -165 -208
-225 l-29 -50 -5 63 c-4 35 -9 113 -12 173 -4 61 -9 122 -11 138 l-6 27 -199
0 -199 0 0 -1565 0 -1565 220 0 220 0 0 547 0 546 49 -69 c118 -168 274 -270
506 -330 100 -26 359 -26 470 0 361 83 612 326 739 716 57 176 71 284 71 535
0 229 -9 303 -56 474 -102 366 -353 628 -691 721 -58 16 -286 44 -308 39 -3
-1 -45 -6 -95 -10z m200 -394 c255 -65 424 -267 482 -577 23 -125 23 -397 0
-524 -61 -326 -215 -524 -463 -592 -102 -28 -205 -36 -304 -22 -326 44 -534
250 -590 582 -18 104 -8 576 13 653 26 91 91 213 147 277 89 100 250 189 380
211 67 11 279 6 335 -8z"/>
<path d="M15485 3179 c-279 -28 -527 -168 -650 -368 -21 -34 -40 -59 -42 -57
-3 2 -8 64 -13 138 -5 73 -12 159 -16 191 l-6 57 -204 0 -204 0 0 -1565 0
-1565 220 0 220 0 2 553 3 552 28 -48 c43 -73 153 -184 235 -238 78 -52 192
-99 300 -126 105 -26 370 -24 484 5 182 45 316 120 444 247 169 167 275 384
326 665 28 152 31 485 5 630 -82 470 -332 785 -708 893 -123 36 -288 50 -424
36z m200 -394 c201 -51 357 -196 432 -403 93 -254 90 -649 -8 -902 -80 -209
-231 -346 -434 -396 -100 -25 -275 -23 -378 5 -127 34 -202 76 -293 167 -130
128 -184 257 -205 489 -14 145 -5 422 16 520 60 278 265 481 535 528 65 11
279 6 335 -8z"/>
<path d="M17865 3179 c-443 -34 -753 -230 -839 -530 -20 -70 -37 -192 -28
-200 4 -4 86 -14 182 -23 96 -9 187 -19 201 -22 25 -5 26 -3 37 71 28 177 131
279 342 337 73 20 108 23 250 22 236 0 326 -27 413 -124 57 -63 82 -132 81
-225 0 -120 -41 -191 -138 -236 -62 -29 -113 -40 -553 -123 -345 -65 -516
-128 -660 -240 -167 -131 -243 -296 -243 -529 0 -198 52 -330 185 -463 64 -65
97 -89 165 -122 141 -68 234 -86 445 -86 155 0 193 3 275 23 241 60 436 184
540 343 l37 57 6 -72 c17 -192 96 -286 280 -334 72 -18 246 -14 312 9 l40 13
0 155 0 154 -75 1 c-83 0 -116 14 -147 62 -17 25 -18 82 -23 763 -6 712 -6
737 -27 811 -67 239 -222 384 -497 463 -138 41 -377 60 -561 45z m622 -1793
c-66 -141 -203 -253 -384 -309 -203 -64 -449 -52 -588 28 -162 94 -203 314
-88 482 66 98 192 158 433 207 426 86 590 124 628 145 16 9 17 -11 20 -246 2
-250 2 -256 -21 -307z"/>
</g>
</svg>
